<svg width="69" height="68" fill="none" xmlns="http://www.w3.org/2000/svg"><path fill-rule="evenodd" clip-rule="evenodd" d="M68.098 38.734a17.219 17.219 0 0 0-1.677-.768 32.253 32.253 0 0 0-.318-9.987C62.793 10.603 45.905-.853 28.473 2.47 12.128 5.565 1.02 20.545 2.426 36.723c-.635.113-1.224.226-1.723.317C-.884 19.913 10.859 4.028 28.155.752c18.385-3.48 36.203 8.586 39.694 26.91.703 3.752.77 7.48.25 11.072zm-62.59-1.378c.862-.226 1.724-.023 2.154.294.046 1.265.091 2.53.114 3.728-.431-.361-1.043-.633-1.746-.542-1.088.135-1.45 1.152-1.315 2.124.16 1.107.635 1.627 2.2 2.96 1.926 1.65 2.788 3.773 3.014 5.671.386 3.209-1.088 4.406-3.559 3.638-1.02-.316-2.063-.949-2.539-1.378-.022-.768-.022-1.56-.045-2.35.567.497 1.519 1.017 2.222 1.22 1.156.339 1.654-.249 1.496-1.333-.159-1.22-.84-1.989-2.063-3.118-1.995-1.763-2.947-3.435-3.197-4.904-.362-2.53.613-5.219 3.265-6.01zM40.51 65.51a31.859 31.859 0 0 0 15.234-7.434c1.088-.203 2.153-.384 3.15-.565A33.802 33.802 0 0 1 40.85 67.25c-11.47 2.169-22.737-1.718-30.422-9.4.975.158 1.995.316 3.083.475 7.186 6.123 17.002 9.083 26.999 7.185zm10.95-9.92c.747-.158 1.337-.836 1.7-3.84.543-4.542 1.224-10.123 1.745-15.75.907.159 1.79.317 2.697.498-.543 5.016-1.2 9.987-1.768 14.19-.68 4.97-2.176 7.117-4.647 7.614-2.675.452-3.559-1.198-3.015-6.666.454-4.722.998-10.574 1.36-16.472.907.113 1.814.249 2.72.384-.453 5.92-1.088 11.818-1.609 16.518-.34 3.027.136 3.615.816 3.524zm-6.666-.745c.794-.09 1.36.858 1.247 2.26-.113 1.333-.748 2.078-1.61 2.191-.747.068-1.36-.542-1.246-1.875.068-1.31.839-2.508 1.61-2.576zM39.195 34.26c.295 2.575.544 5.129.77 7.569.205 1.92.364 4.09.454 6.1h.046c.249-1.988.566-4.089.906-6.213.363-2.373.726-4.835 1.043-7.276.952.068 1.882.158 2.834.249-1.247 6.033-2.63 12.224-3.922 17.24-.181 3.05-.363 5.626-.43 7.524-.794.068-1.61.113-2.404.136.068-1.853.182-4.406.34-7.389-.725-5.016-1.473-11.478-2.538-18.03.952.022 1.926.044 2.901.09zm-4.919 2.643c1.201 2.44 1.79 6.688 1.632 12.066-.159 5.265-.907 8.021-1.995 9.31-.861 1.039-2.04 1.468-3.717 1.378a12.271 12.271 0 0 1-1.973-.294c-.113-4.632-.045-14.212-.59-24.606.658-.407 1.633-.7 2.721-.723 1.746-.046 2.992.926 3.922 2.87zm-3.287 2.147c-.181 0-.363 0-.521.135.18 7.208.09 13.603.09 17.85.136.068.295.068.43.068 1.157-.045 2.2-1.288 2.313-8.36.068-5.716-.725-9.761-2.312-9.693zm-8.41-4.406c.884-.09 1.79-.159 2.675-.226.408 6.304.589 12.54.725 17.489.136 5.83-.997 7.343-3.31 7.094-2.584-.406-3.717-2.417-4.057-7.705-.318-4.609-.703-10.28-1.315-16.02l2.652-.339c.567 6.282.907 12.496 1.179 17.354.159 3.118.725 3.863 1.383 3.976.702.046 1.156-.474 1.042-3.75-.204-4.971-.476-11.389-.974-17.873zm-9.272 22.414c-.453-4.022-.998-9.942-1.745-16.314-.771.068-1.542.136-2.335.181-.182-1.355-.363-2.734-.567-4.135a126.86 126.86 0 0 1 7.322-1.355c.181 1.672.34 3.321.499 4.948-.794.045-1.587.09-2.358.158.726 6.779 1.202 13.038 1.587 17.06a51.741 51.741 0 0 1-2.403-.543zm46.018-27.792a24.7 24.7 0 0 1 .386 6.553l-.59-.136c.136-2.056.023-4.18-.385-6.304a26.086 26.086 0 0 0-1.224-4.293c.158.43.317.881.453 1.333-.408.068-.68.045-1.088-.271-.181-.136-.295-.927-.635-.678-.136.09-.113.045-.181.203-.023.068-.045.023 0 .068.09.384.385.814.816.814 0 .293.023.248 0 .474h.136c.386.294.77-.158 1.02-.384.182.565.318 1.152.454 1.74-.023.068-.023.135-.023.226h-.181c-.204.339-.386.27-.454.61-.227.022-.453.045-.703.068-.022.135-.022.135-.067.203-.227.226-1.791.746-2.154.746v.203c-.136.023-.181.023-.25.068.386.045.318.226.703.27.227-.203.884-.293 1.451-.27 0 1.242-.635 1.65-1.27 2.192-.158.135-.226.429-.385.61-.385.474-.748.858-1.065 1.333a99.671 99.671 0 0 0-8.002-.972c.136-.271.136-.7.09-1.04-.113-.067-.181-.09-.25-.203l-.747.136c-.114-.294-.181-.542-.499-.61-.476-.203-1.11.339-1.45.474-.772-.226-.907.023-1.7.068-.318-.271-.93-.52-1.134-.881-.091-.158-.023-.339-.136-.475-.182-.27-.408-.27-.5-.677h-.18c-.091-.159-.182-.226-.25-.407.159-.271 0-.18-.068-.543.181-.158.43-.542.567-.745-.09-.136-.295-.859-.317-1.04.204-.203.204-.497.385-.745.09-.158.317-.158.453-.271.114-.113.046-.384.068-.407 0 0 .952-.655 1.02-.678-.249-.723.272-.723.703-1.107.113-.09.227-.43.317-.542-.18-.159-.136-.271-.453-.34-.136.091-.25.046-.453.069.113-.362-.159-.452-.136-.678.362-.317.226-.791.068-1.107.68-.272 1.496-.046 2.085 0 .068-.181.091-.113.136-.34-.272-.248-.068-.451-.136-.542-.113-.203-.249-.068-.317-.406-.181-.023-.385-.046-.567-.068-.045-.113-.023-.068-.068-.136l.068-.068c.204-.135.567-.045.748-.067 0-.226-.09-.136.136-.204.227.136.318-.09.635-.135v-.271c.657-.023.567-.272.884-.543.046-.022.499-.203.703-.27.09.112.181.135.317.203v-.272c-.113-.135-.181-.203-.136-.339.09-.203.363-.338.567-.406l.068.068c-.023.226 0 .113.068.338-.204.068-.09-.022-.181.136.181.068.113.023.181.203h-.136c-.068-.067-.113-.09-.181-.135v.135c.068.046.136.09.181.136.113.113.181.09.499.068.09-.226.09-.317.317-.407.045.18.113.203.181.339.182-.136.635-.475 1.02-.339.069.023.091.203.318.136.068-.023.159-.136.068-.204.136-.045.295-.022.385-.068-.136-.406.046-.474.25-.677.204.113.249.226.498.27a.94.94 0 0 1 .068-.406c-.249-.045-.204 0-.249-.271h.136c.499-.317 1.02.158 1.519-.204-.839-.113-1.542-.045-2.154-.135.023-.43 0-.362-.136-.678.386-.158.68-.474 1.066-.542v-.204a2.19 2.19 0 0 0-.952.068c-.046.158-.046.249-.182.34-.158.135-.498.248-.816.406l-.068.474c.181.09.295.159.386.34-.16.067-.114.067-.182.203-.25 0-.385.067-.385.542.045.068.023.023.068.136-.363.045-.839.338-.952.27 0 0-.612-.903-.635-.948-.567.452-.907.52-1.45.067.09-.338-.023-.7 0-.949.203-.045.52-.158.566-.203.113-.09-.023-.113.25-.135 0 0 .566-.317.702-.34a.64.64 0 0 0 .136.204c.023-.158.023-.18.068-.271.068.022.136.045.181.068 0-.159.522-.565.748-.678v-.068c-.136-.023-.18-.023-.249-.068h.136c.159-.271.363-.09.635-.068-.046-.113-.181-.045-.068-.135.317-.294.748-.294 1.224-.34a25.313 25.313 0 0 0-6.415-3.524h-.068c-.635.09-1.088-.407-1.655-.136-.25.113-1.338-.248-1.451-.135-.068-.068-.09-.158-.25-.204-.272-.09-.702.068-.884.068l-.249-.135c-.499-.09-1.587.09-2.086.135-.589.046-1.133-.203-1.904 0-.702.181-1.383-.045-1.768.204 1.655.203 3.106.158 4.987.135v.068h-.068c-.113.045.136.068.136.068.227-.136.454-.023.635.068-.045.067-.09.067-.136.135h.385c.091-.068.658-.113.953 0v.068c-.136.022-.114.022-.182.068.59-.023.93-.226 1.202 0-.25.022-1.315.497-1.52.745h-.067v.068c.25 0 .385.023.567.068l-.069.068v.068c-.09-.046-.113-.046-.249-.068v.203c-.181.023-.272.045-.385.136.204 0 .385.022.498.067-.204.633-.294.43-.634.678.113.113.068.046.068.136-.159.113-.363.022-.567 0v.068h.136c.068.045.25.09.317.135-.068.023-.294.09-.136.136.068.045.182.09.25.135v.136h-.25c-.158-.18-.249-.249-.566-.271-.023.18.045.09-.136.135v.204c.158.068.34.135.498.203-.068.045-.022.023-.136.068-.34.226-1.11.271-1.382.339-.204.045-.408-.113-.5-.068-.384.158-.77.588-1.269.746-.453.135-.77.022-1.065.27.272.34-.295.43-.453.814-.069.181.18.384 0 .543h-.454c-.227.09-.181-.09-.453-.204-.182-.09-.499-.045-.567 0a121.04 121.04 0 0 1-.068-.203 1.557 1.557 0 0 0-.181.068c-.431-.272-.544-.7-.884-.882.068-.339-.182-.451-.136-.745-.227-.023-.16.022-.25-.136.046-.068.023-.022.068-.135.159-.046.544-.204.635-.34.023-.067.045-.022 0-.067-.09-.136-.045-.09-.25-.136-.135.317-.566.159-.634.068h-.068l.068-.203c.136-.045.159-.136.25-.34h-.137c-.136.091-.204.046-.385 0 .045-.27-.068-.248.068-.338l.068-.136h-.181c-.091.09-.023.046-.137 0a1.28 1.28 0 0 1-.634-.61c-.34.068-.386-.068-.635-.135l-.748.135-.385-.135c-.431-.068-.522.158-.884-.204 0 0-.227.136-.318.136l-.068-.204c.136-.022.181-.022.25-.067-.386-.046-.5-.249-.749-.34-.204-.067-.362.114-.498.136-.136-.022-.25-.045-.386-.067l-.136.203c-.521.294-.93.384-1.45.339v.135c.271 0 .385.046.566.136v.136c-.703-.023-1.768.067-2.221.135-.091.023-.182 0-.273 0-.158.09-.317.204-.476.316.295-.112 1.157-.338 1.429-.225.09.045.136.203.385.135 1.473-.361 1.927.407 3.355.475.023-.09-.045.022-.068-.068-.113-.045.136-.068.136-.068.113-.023.181.045.454.068-.023-.158-.046-.023 0-.204.498.294 1.246-.226 1.836.272.204.384 0 .451.453.813-.09.316-.023.452-.068.881-.204.023-.25.023-.317.068-.114.113-.272.226-.386.339a5.78 5.78 0 0 1-.703-.203v.067c.114.09.182.136.25.271-.181.114-.318.136-.635.136-.136-.136-.25-.18-.499-.203v.067h.136c.182.227.409.136.5.475h-.069c-.204-.226-.725-.203-1.065-.136-.091-.18-.159-.09-.25-.203-.453-.565-.793-.203-1.654-.339v-.068l.136-.135h-.5c-.067.022-.543 0-.883 0v.068h.136c.068.067.34.18.567.27v.136h-.137c-.09.023-.589-.203-.634-.135-.204.135-.25.248-.567.27-.023-.135-.023-.135-.068-.203-.09.068-.204.068-.385.068v-.068c.249-.135.272-.338.385-.61h-.136c-.476.837-2.13.633-2.154 1.921.068.023.272.023.386.068.226.135.136.384.453.474.136-.09.43-.067.635 0 .295.113.612.384.952.475.453.135.612 0 .884.135-.068.226-.045.34-.068.543.181-.068.272-.136.385.067-.136.023-.18.023-.249.068h.068c.113.136.25.271.454.34.136-.182.203-.136.249-.408a3.46 3.46 0 0 1-.25-.61c.363 0 .635-.135.749-.406.045-.09.045-.113.068-.271-.16-.113-.386-.249-.5-.407.114-.09.16-.18.25-.271a4.9 4.9 0 0 0-.181-.678c.09-.045.136-.068.181-.136l.748.136c.091 0 .159-.113.318-.068.544.158.317.407.952.339-.068.18-.046.294 0 .474.181.09.204.159.453.204.363.045.476-.407.816-.542a80.58 80.58 0 0 0 1.066 1.446c.317.226.59-.068.748.27h-.068c-.068.069.068.069.068.069.295.203.385.045.385.61-.113.045-.068.022-.136.067.136.023.181.023.25.068a.782.782 0 0 0-.25.34c.181.09.136.157.386.203.067-.068.113-.09.18-.136.091.271.228.52.386.61-.09.203-.068.271-.317.339-.227-.271-.25-.136-.567-.068 0-.248.068-.158-.181-.203-.046.022-.454 0-.703 0 .068-.497.476-.633.635-1.107h-.182c-.294.248-.77.384-.952.406-.204.023-.498-.135-.702 0 .294 0 .521.068.634.271h-.181c-.227-.18-.59-.338-1.134-.338-.136.158-.362.248-.498.406h-.068v.068h.136c.25-.226.884-.452 1.065-.068h.068c.068.068-.068.068-.068.068-.045.045-.136.09-.181.136.113.067.136.27.181.474h.068c.023-.158.023-.203.068-.271.136.158.386.09.499.271-.068.068-.068.045-.136.136h.136a.984.984 0 0 1 .385-.271c.068.158.068.113.136.27-.566.046-1.042.498-1.518.679-.069-.136-.091-.136-.137-.34a.522.522 0 0 0 .318-.203c-.59.046-1.383.384-1.338 1.175-.453.023-.544.204-.816.271-.09.226-.385.723-.498.814v.068h-.068c.022-.226.136-.159-.068-.271v.27h-.068c-.068.068.068.068.068.068.045.09.113.204.18.271-.044.113-.022.068-.067.136-.09.113-.113.045-.181.203h.068v.068c-.454.023-1.293.633-1.338 1.243.317.407.363.904.317 1.378h-.249c-.068-.248-.34-.587-.499-.745.068-.113.068-.113.136-.271-.204-.136-.181-.249-.498-.272-.227.136-.272-.09-.454-.135-.226-.045-.566.068-.952.068v.067c.159.09.046-.022.136.136h-.25c-.18.09-.543-.023-.702-.136-.295.023-1.088.475-1.133.678-.023.136.158.407.136.543a1.557 1.557 0 0 0-.182.067v.881c.068.34.34.498.454.882.34.045.294.158.634.203.182-.158.34-.113.567-.068.046-.158.25-.678.386-.745.18-.136.476-.136.748-.136.045.113.045.158.068.339-.272.136-.182.339-.068.542-.295.09-.363.34-.635.475v.068h1.133c.114.18.204.158.25.406.045.159-.182.7-.068.95.09.27.272.496.566.542.091 0 .476-.294.816-.136.069.09.137.18.182.271.113.045.09-.045.136-.068.34-.135.25-.52.499-.677.249-.136.566-.023.816-.407.068.022.136.045.181.068v.203c-.136.09-.113.09-.136.136v.067c.113-.067.159-.09.317-.135 0-.181 0-.113.068-.34h.068c.046.294.363.52.567.61.227-.157.499.046.816.069v-.271c.182.022.114.09.182.135.022 0 .43-.023.498 0 .023.09-.045-.023-.068.068-.113.045.136.068.136.068.046-.226-.022-.113.136-.204l.068.068c-.045.271-.113.407 0 .475.227.226.635.723.952.813.182.068.477-.045.567-.068.59-.09 1.066.452 1.066 1.107.09.068.136.159.181.226-2.607.09-5.305.272-7.98.52a.678.678 0 0 1 .091-.18c.068-.136.295-.091.386-.204l.068-.407c.09-.135.226-.045.317-.203.068-.113.09-.836.068-.881-.068-.317-.25-.565-.567-.61-.068.067-.113.09-.181.135 0 .271.136.18-.136.271-.159-.18-.567-.203-.567-.203-.068-.068-.045-.271-.136-.339-.136-.136-.408-.113-.499-.136-.158-.542-.362-.971-.884-.949-.25-.18-.634-.158-.884-.338-.159-.114-.25-.407-.453-.475l-.748.136c-.703-.181-1.564-.633-2.018-1.108l.136-.406c-.181-.159-.227-.43-.385-.61-.204-.249-.567-.362-.748-.61.068-.068.068-.046.136-.136-.227-.068-.34-.136-.386-.407h-.181c-.09-.135-.454-.813-.567-.881-.09-.068-.159-.068-.317-.068v.136c.159.203.25.316.453.474-.09.046-.045 0-.068.068.204.339.612.7.703 1.31h.181c.068.136.091.136.136.34l-.068.067h-.136c-.09-.293-.317-.429-.566-.542.022-.203.068-.203 0-.339-.16-.18-.454-.339-.703-.407v-.067h.068c.068-.068.113-.09.181-.136v-.068h-.068c-.09-.27-.25-.158-.385-.339-.204-.27-.204-.79-.454-1.039-.204-.203-.544-.136-.748-.271 0 0-.408-.588-.453-.61.113-.045.068-.023.136-.068-.272-.113-.43-.362-.521-.633a24.393 24.393 0 0 0-2.585 12.495c-.204.023-.408.068-.59.09-.793-12.494 7.844-23.928 20.494-26.345 13.624-2.666 26.885 6.326 29.492 19.974zm-.793 27.227c-.839.226-1.678.43-2.494.61 1.587-5.084 3.718-12.63 5.668-19.725 1.065.248 2.108.52 3.173.79-.158 6.598-.226 11.93-.158 16.518-.862.27-1.723.542-2.585.79-.022-1.061-.022-2.146-.022-3.321-.816.203-1.633.407-2.449.587-.408 1.334-.77 2.599-1.133 3.751zm3.74-6.8c.046-1.176.091-2.419.159-3.707.045-1.13.159-3.118.25-4.428h-.069a305.67 305.67 0 0 1-1.178 4.519c-.363 1.356-.748 2.689-1.111 4 .657-.136 1.292-.272 1.95-.385z" fill="#E30613"/><path d="M3.56 31.617l2.538-.271-2.448-.723.068-.678 3.718 1.243c.725.248.974.452.952.768a1.362 1.362 0 0 1-.114.361l-.68-.067c.023-.046.068-.09.068-.159.023-.113-.09-.226-.34-.316l-3.785.542.022-.7zm2.379-2.486L4.08 28.024l.136-.678 1.859 1.198 2.788-.339-.136.678-1.95.18.409.317 1.383.271-.114.61-4.624-.858.113-.61 1.995.338zm3.106-1.762l-.159.587-4.534-1.265.318-1.13c.136-.52.838-.655 1.564-.451.748.203 1.27.7 1.133 1.22l-.159.52 1.837.519zm-2.517-.7l.091-.294c.09-.294-.113-.52-.544-.633-.43-.113-.703-.045-.793.271l-.091.294 1.337.362zm-1.246-3.006l.295-.768 4.67.972-.227.632-1.201-.293-.25.655 1.088.61-.226.633-4.149-2.44zm2.834.34l-2.154-.52 1.95 1.039.204-.52zm-1.814-2.848l1.587.768c.499.25 1.134.565 1.474.791L6.665 20.41l.295-.61 4.261 2.033-.249.52-1.61-.768c-.657-.317-1.088-.543-1.45-.769l2.697 2.283-.294.61-4.262-2.034.25-.52zm2.902-1.649l.43-.7-1.564-.927.318-.542 4.058 2.417-.318.543-1.881-1.108-.431.701 1.881 1.107-.317.542-4.058-2.44.318-.542 1.564.949zm1.655-3.006l-.09-.067c-.477-.339-.704-.384-.862-.18-.16.203-.068.428.43.767l1.497 1.085c.498.361.725.384.884.18.136-.203.045-.429-.454-.768l-.204-.158.363-.497.159.113c.702.497 1.156 1.107.702 1.717-.476.656-1.201.384-1.859-.113l-1.382-.994c-.884-.655-1.111-1.22-.703-1.762.363-.52.997-.497 1.7.022l.182.136-.363.52zm1.541-1.107l-1.043-1.898.454-.52.997 1.967 2.585 1.107-.454.52-1.768-.814.181.497 1.066.927-.408.474-3.56-3.14.409-.475 1.541 1.355zm.318-3.343l.589-.588 3.786 2.892-.476.475-.952-.791-.5.497.704 1.017-.476.452-2.675-3.955zm2.403 1.536l-1.7-1.401 1.314 1.785.386-.384zm1.768-1.514l.77 1.853-.52.43-.794-1.99c-.386.046-.84-.248-1.224-.7-.476-.587-.613-1.265-.205-1.604l.93-.746 2.947 3.66-.476.385-1.202-1.491-.226.203zM15.8 10.264l-.25.204c-.25.203-.204.497.068.836.272.339.567.452.816.248l.25-.203-.884-1.085zm2.721-2.801c.544-.317 1.11-.181 1.723.836l.884 1.468c.612 1.017.453 1.582-.09 1.898-.545.317-1.111.204-1.724-.813l-.884-1.469c-.612-1.017-.43-1.604.091-1.92zm.408 1.49l.998 1.65c.249.43.498.588.747.43.227-.136.227-.43-.022-.859l-.975-1.627c-.25-.43-.544-.61-.77-.474-.273.135-.227.452.022.88zm2.766-3.073l.294.61-.997.475.499 1.017.476-.226c.453-.226 1.065.294 1.36.881.385.814.408 1.47-.046 1.695l-1.088.52-2.04-4.226 1.542-.745zm.748 4.113l.317-.158c.204-.09.25-.339 0-.813-.204-.407-.453-.633-.657-.543l-.318.158.658 1.356zm2.403-.339l-.59.226-1.655-4.406 1.088-.407c.5-.18 1.02.272 1.293.972.272.723.18 1.446-.318 1.627l-.498.18.68 1.808zm-.93-2.44l.295-.113c.295-.113.34-.407.181-.813-.159-.407-.385-.588-.68-.475l-.295.113.5 1.288zm1.678-2.779l.793-.226 1.995 4.316-.635.18-.476-1.13-.68.204.159 1.22-.635.18-.521-4.744zm1.405 2.485l-.838-2.033.317 2.191.521-.158zm.884-1.694c-.158-.814.068-1.492.68-1.605.431-.09 1.02.113 1.202 1.04.09.474-.023.926-.295 1.107.34.045.635.384.77 1.084.182.927-.09 1.447-.724 1.582-.522.113-1.089-.135-1.293-1.13l.59-.113c.068.317.204.61.521.565.295-.068.34-.361.25-.836-.114-.542-.34-.7-.59-.655l-.136.023-.136-.656.136-.022c.227-.045.363-.249.295-.656-.068-.316-.204-.632-.454-.587-.249.045-.317.361-.226.79l-.59.069zm3.469-2.011c.634-.068 1.088.293 1.224 1.49l.181 1.696c.114 1.197-.25 1.626-.884 1.672-.612.067-1.11-.294-1.224-1.47l-.181-1.694c-.137-1.175.249-1.627.884-1.694zM31.08 4.75l.204 1.92c.045.475.204.746.498.701.272-.022.386-.294.34-.79l-.204-1.899c-.045-.497-.226-.79-.498-.745-.295.022-.408.316-.34.813zm2.085-1.603l1.156-.023c.567 0 .816.542.816 1.13 0 .452-.158.949-.43 1.04.317.18.498.519.498 1.13 0 .813-.226 1.4-.725 1.4l-1.247.023-.068-4.7zm.635 1.898h.317c.272 0 .386-.249.386-.633 0-.407-.114-.587-.386-.587h-.34l.023 1.22zm.023 2.124h.408c.226 0 .34-.204.34-.723 0-.452-.114-.723-.363-.723H33.8l.023 1.446zm2.652-3.977l.839.068.362 4.745-.68-.045-.068-1.22-.703-.046-.294 1.198-.658-.045 1.202-4.655zm.453 2.824l-.09-2.191-.454 2.146.544.045zm1.995 2.17l-.612-.09.612-3.932-.77-.113.113-.7 2.13.338-.113.7-.77-.112-.59 3.909zm3.786-3.977l-.159.7-1.088-.27-.25 1.061.976.249-.16.7-.997-.248-.34 1.423 1.088.271-.158.7-1.7-.406 1.11-4.564 1.678.384zm2.766.881l-1.52 4.451-.589-.203 1.27-3.774L44 5.361l-.59 1.717c-.496 1.492-.904 2.08-1.38 1.922-.136-.045-.25-.09-.34-.18l.204-.633a.664.664 0 0 0 .181.09c.182.068.295-.045.839-1.672l.725-2.124 1.837.61zm.566 2.214l.476.204c.454.203.476.994.204 1.604-.362.836-.861 1.265-1.314 1.062l-1.088-.475 1.904-4.293.566.249-.748 1.65zm-.884 2.011l.318.136c.204.09.408-.045.634-.52.182-.43.204-.768-.022-.858l-.318-.136-.612 1.378zm3.197-.903l.725.406.884-1.581.544.293-2.29 4.113-.544-.294 1.066-1.898-.725-.407-1.066 1.898-.544-.293 2.29-4.113.544.294-.884 1.582zm3.332-.136l.68.474-2.04 4.294-.567-.385.567-1.107-.59-.384-.861.904-.544-.384 3.355-3.412zm-1.02 2.666L51.686 9l-1.474 1.65.454.293z" fill="#E30613"/><path d="M52.502 12.343l-1.655 1.13-.521-.43 1.768-1.152c-.113-.361.068-.881.43-1.333.477-.587 1.111-.859 1.52-.52l.929.746-2.992 3.638-.476-.384 1.224-1.492-.227-.203zm1.564-1.423l-.25-.204c-.248-.203-.52-.113-.793.226-.294.34-.317.655-.09.836l.25.204.883-1.062zm1.338 3.073l1.995-.86.476.52-2.063.791-1.36 2.44-.477-.496.998-1.672-.499.135-1.02.972-.43-.452 3.422-3.231.431.452-1.473 1.4zm3.581.858c.386.497.34 1.085-.612 1.808l-1.337 1.062c-.952.745-1.496.655-1.904.158-.386-.475-.34-1.085.589-1.808l1.338-1.062c.929-.723 1.541-.632 1.926-.158zm-1.45.61l-1.52 1.198c-.385.294-.52.565-.317.813.159.204.454.158.862-.135l1.496-1.22c.385-.317.544-.61.363-.814-.182-.226-.5-.158-.884.158zm3.06 1.763l-2.358 1.988 2.834-1.265.521.836-3.99 2.508-.317-.497 3.605-2.26-3.945 1.74-.227-.384 3.287-2.78-3.604 2.26-.317-.497 3.99-2.508.52.859zm2.289 4.157l-4.239 2.056-.272-.565 3.582-1.74-.363-.745-3.581 1.74-.273-.565 4.24-2.056.906 1.875zm.522 1.311l.295.768-4.149 2.35-.25-.633 1.089-.587-.25-.655-1.224.248-.226-.61 4.715-.881zm-2.358 1.604l1.972-1.017-2.153.497.181.52zm1.519 1.469l.227.79 1.745-.497.159.588-4.534 1.265-.159-.587 2.109-.588-.227-.79-2.108.587-.159-.588 4.534-1.265.159.588-1.746.497zm2.426 2.215l-1.723.315c-.544.113-1.247.226-1.655.226l3.536.271.114.656-4.625.858-.113-.565 1.745-.316c.703-.135 1.202-.203 1.633-.226l-3.537-.27-.113-.656 4.624-.859.114.565zm-2.313 3.592l-1.972-.384-.068-.678 2.063.452c.181-.34.657-.565 1.27-.633.748-.068 1.405.18 1.45.7l.114 1.198-4.693.43-.068-.61 1.904-.181v-.294zm2.109.113l-.023-.317c-.023-.316-.295-.451-.726-.406-.453.045-.68.226-.657.542l.023.316 1.383-.135z" fill="#E30613"/></svg>